<mxfile host="app.diagrams.net" modified="2021-04-08T13:39:45.999Z" agent="5.0 (Macintosh; Intel Mac OS X 10_14_6) AppleWebKit/537.36 (KHTML, like Gecko) Chrome/89.0.4389.114 Safari/537.36" etag="afnTwLkg3qc8Cb1XmXoz" version="14.1.9" type="github">
  <diagram id="ESqF9vsxd67buh6txlod" name="Page-1">
    <mxGraphModel dx="1377" dy="771" grid="1" gridSize="10" guides="1" tooltips="1" connect="1" arrows="1" fold="1" page="1" pageScale="1" pageWidth="850" pageHeight="1100" math="0" shadow="0">
      <root>
        <mxCell id="0" />
        <mxCell id="1" parent="0" />
        <mxCell id="P96AOgExT0ZqjlrPtySz-1" value="" style="rounded=0;whiteSpace=wrap;html=1;fillColor=none;" vertex="1" parent="1">
          <mxGeometry x="160" y="160" width="240" height="130" as="geometry" />
        </mxCell>
        <mxCell id="P96AOgExT0ZqjlrPtySz-2" value="UIButton" style="text;html=1;align=center;verticalAlign=middle;resizable=0;points=[];autosize=1;" vertex="1" parent="1">
          <mxGeometry x="160" y="160" width="60" height="20" as="geometry" />
        </mxCell>
        <mxCell id="P96AOgExT0ZqjlrPtySz-3" value="" style="rounded=0;whiteSpace=wrap;html=1;fillColor=none;" vertex="1" parent="1">
          <mxGeometry x="170" y="180" width="220" height="100" as="geometry" />
        </mxCell>
        <mxCell id="P96AOgExT0ZqjlrPtySz-4" value="UIButton" style="text;html=1;align=center;verticalAlign=middle;resizable=0;points=[];autosize=1;" vertex="1" parent="1">
          <mxGeometry x="170" y="180" width="60" height="20" as="geometry" />
        </mxCell>
        <mxCell id="P96AOgExT0ZqjlrPtySz-5" value="" style="endArrow=classic;html=1;exitX=1;exitY=0.5;exitDx=0;exitDy=0;" edge="1" parent="1" source="P96AOgExT0ZqjlrPtySz-3">
          <mxGeometry width="50" height="50" relative="1" as="geometry">
            <mxPoint x="400" y="370" as="sourcePoint" />
            <mxPoint x="560" y="230" as="targetPoint" />
          </mxGeometry>
        </mxCell>
        <mxCell id="P96AOgExT0ZqjlrPtySz-6" value="style" style="edgeLabel;html=1;align=center;verticalAlign=middle;resizable=0;points=[];" vertex="1" connectable="0" parent="P96AOgExT0ZqjlrPtySz-5">
          <mxGeometry x="-0.1059" relative="1" as="geometry">
            <mxPoint x="4" as="offset" />
          </mxGeometry>
        </mxCell>
        <mxCell id="P96AOgExT0ZqjlrPtySz-12" value="stytes.tsx" style="shape=note;whiteSpace=wrap;html=1;backgroundOutline=1;darkOpacity=0.05;fillColor=none;" vertex="1" parent="1">
          <mxGeometry x="560" y="175" width="80" height="100" as="geometry" />
        </mxCell>
      </root>
    </mxGraphModel>
  </diagram>
</mxfile>
